<?xml version="1.0" encoding="utf-8" ?>
<svg xmlns="http://www.w3.org/2000/svg" xmlns:xlink="http://www.w3.org/1999/xlink" width="72" height="72">
	<path fill="#1B1D21" transform="translate(10 5)" d="M52 26Q52 26.638264 51.968681 27.275759Q51.937366 27.913256 51.874805 28.548447Q51.812241 29.183636 51.718586 29.814993Q51.624931 30.446346 51.500412 31.072346Q51.375893 31.698345 51.22081 32.317482Q51.065727 32.936619 50.880447 33.547401Q50.695168 34.15818 50.480145 34.759132Q50.265114 35.360085 50.020863 35.949764Q49.776611 36.539444 49.503719 37.116428Q49.230827 37.693413 48.929955 38.256313Q48.629074 38.81921 48.300941 39.366669Q47.972809 39.914124 47.61821 40.444824Q47.263611 40.975521 46.883396 41.488182Q46.503181 42.000839 46.098274 42.494225Q45.693359 42.98761 45.264729 43.460529Q44.836094 43.933453 44.384773 44.384773Q43.933453 44.836094 43.460533 45.264729Q42.98761 45.693359 42.494225 46.098274Q42.000839 46.503181 41.488178 46.883392Q40.975521 47.263603 40.444824 47.618206Q39.914124 47.972805 39.366669 48.300941Q38.81921 48.629074 38.256313 48.929951Q37.693413 49.230827 37.116428 49.503719Q36.539444 49.776611 35.949764 50.020863Q35.360085 50.265114 34.759132 50.480141Q34.15818 50.695168 33.547401 50.880447Q32.936619 51.065727 32.317482 51.22081Q31.698345 51.375893 31.072346 51.500412Q30.446346 51.624931 29.814991 51.718586Q29.183636 51.812241 28.548447 51.874805Q27.913256 51.937363 27.275761 51.968681Q26.638264 52 26 52Q25.361736 52 24.724239 51.968681Q24.086746 51.937363 23.451555 51.874805Q22.816364 51.812241 22.185009 51.718586Q21.553652 51.624931 20.92765 51.500412Q20.301651 51.375893 19.682514 51.22081Q19.063377 51.065727 18.452599 50.880447Q17.841818 50.695168 17.240864 50.480145Q16.63991 50.265114 16.05023 50.020863Q15.46055 49.776611 14.883568 49.503719Q14.306583 49.230827 13.743685 48.929955Q13.180786 48.629074 12.633327 48.300941Q12.085871 47.972809 11.555173 47.61821Q11.024475 47.263611 10.511817 46.883396Q9.9991589 46.503181 9.5057745 46.098274Q9.0123892 45.693359 8.5394669 45.264729Q8.0665445 44.836094 7.6152234 44.384773Q7.1639023 43.933453 6.7352705 43.460533Q6.3066378 42.98761 5.9017277 42.494225Q5.4968166 42.000839 5.1166034 41.488178Q4.7363901 40.975521 4.3817897 40.444824Q4.0271893 39.914124 3.6990559 39.366669Q3.3709226 38.81921 3.0700471 38.256313Q2.7691715 37.693413 2.4962783 37.116428Q2.2233851 36.539444 1.9791319 35.949764Q1.7348789 35.360085 1.5198542 34.759132Q1.3048295 34.15818 1.1195512 33.547401Q0.93427289 32.936619 0.77918732 32.317482Q0.62410182 31.698345 0.49958265 31.072346Q0.37506351 30.446346 0.28141069 29.814991Q0.18775792 29.183636 0.1251971 28.548447Q0.062636271 27.913256 0.031318136 27.275761Q0 26.638264 0 26Q0 25.361736 0.031318136 24.724239Q0.062636271 24.086746 0.1251971 23.451555Q0.18775792 22.816364 0.28141069 22.185009Q0.37506351 21.553652 0.49958265 20.92765Q0.62410182 20.301651 0.77918732 19.682514Q0.93427289 19.063377 1.1195512 18.452599Q1.3048295 17.841818 1.5198542 17.240864Q1.7348789 16.63991 1.9791319 16.05023Q2.2233851 15.46055 2.4962783 14.883568Q2.7691712 14.306583 3.0700469 13.743685Q3.3709226 13.180786 3.6990557 12.633327Q4.0271893 12.085871 4.3817897 11.555173Q4.7363901 11.024475 5.1166034 10.511817Q5.4968166 9.9991589 5.9017277 9.5057745Q6.3066378 9.0123892 6.73527 8.5394669Q7.1639023 8.0665445 7.6152234 7.6152234Q8.0665445 7.1639023 8.5394669 6.7352705Q9.0123882 6.3066378 9.5057735 5.9017277Q9.9991579 5.4968166 10.511816 5.1166034Q11.024475 4.7363901 11.555172 4.3817897Q12.085869 4.0271893 12.633327 3.6990559Q13.180784 3.3709226 13.743684 3.0700471Q14.306581 2.7691715 14.883566 2.4962783Q15.460549 2.2233851 16.050228 1.9791319Q16.639908 1.7348789 17.240862 1.5198542Q17.841816 1.3048295 18.452597 1.1195512Q19.063377 0.93427289 19.682514 0.77918732Q20.301651 0.62410182 20.92765 0.49958265Q21.553652 0.37506351 22.185009 0.28141069Q22.816364 0.18775792 23.451555 0.1251971Q24.086746 0.062636271 24.724239 0.031318136Q25.361736 0 26 0Q26.638264 0 27.275759 0.031318136Q27.913256 0.062636271 28.548447 0.1251971Q29.183636 0.18775792 29.814993 0.28141069Q30.446346 0.37506351 31.072346 0.49958265Q31.698345 0.62410182 32.317482 0.77918732Q32.936619 0.93427289 33.547401 1.1195512Q34.15818 1.3048295 34.759132 1.5198542Q35.360085 1.7348789 35.949764 1.9791319Q36.539444 2.2233851 37.116428 2.4962783Q37.693413 2.7691712 38.256313 3.0700469Q38.81921 3.3709226 39.366669 3.6990557Q39.914124 4.0271893 40.444824 4.3817897Q40.975521 4.7363901 41.488182 5.1166034Q42.000839 5.4968166 42.494225 5.9017277Q42.98761 6.3066378 43.460529 6.73527Q43.933453 7.1639023 44.384773 7.6152234Q44.836094 8.0665445 45.264729 8.5394669Q45.693359 9.0123882 46.098274 9.5057735Q46.503181 9.9991579 46.883392 10.511816Q47.263603 11.024475 47.618206 11.555172Q47.972805 12.085869 48.300941 12.633327Q48.629074 13.180784 48.929951 13.743684Q49.230827 14.306581 49.503719 14.883566Q49.776611 15.460549 50.020863 16.050228Q50.265114 16.639908 50.480141 17.240862Q50.695168 17.841816 50.880447 18.452597Q51.065727 19.063377 51.22081 19.682514Q51.375893 20.301651 51.500412 20.92765Q51.624931 21.553652 51.718586 22.185009Q51.812241 22.816364 51.874805 23.451555Q51.937366 24.086746 51.968681 24.724239Q52 25.361736 52 26Z"/>
	<path fill="white" transform="translate(27.3333 22.3333)" d="M10.833333 0L6.5 0L6.5 6.5L0 6.5L0 10.833333L6.5 10.833333L6.5 17.333334L10.833333 17.333334L10.833333 10.833333L17.333334 10.833333L17.333334 6.5L10.833333 6.5L10.833333 0Z"/>
</svg>
