<?xml version="1.0" encoding="utf-8" ?>
<svg xmlns="http://www.w3.org/2000/svg" xmlns:xlink="http://www.w3.org/1999/xlink" width="24" height="24">
	<path fill="#808191" transform="translate(2 5)" d="M17.7451 7C17.731501 7.0232 17.7176 7.0468001 17.7033 7.0707998C17.3659 7.6375999 16.8536 8.3915005 16.159401 9.1391001C14.7698 10.6356 12.7637 12 10 12C7.23629 12 5.2302098 10.6356 3.84059 9.1391001C3.1463699 8.3915005 2.6340799 7.6375999 2.29671 7.0707998C2.2824399 7.0468001 2.2685101 7.0232 2.25491 7C2.2685101 6.9768 2.2824399 6.9531999 2.29671 6.9292002C2.6340799 6.3624001 3.1463699 5.6085 3.84059 4.8608999C5.2302098 3.3643899 7.23629 2 10 2C12.7637 2 14.7698 3.3643899 16.159401 4.8608999C16.8536 5.6085 17.3659 6.3624001 17.7033 6.9292002C17.7176 6.9531999 17.731501 6.9768 17.7451 7ZM0 7C0 7 3 0 10 0C17 0 20 7 20 7C20 7 17 14 10 14C3 14 0 7 0 7Z" fill-rule="evenodd"/>
	<path fill="#808191" transform="translate(9 9)" d="M3 4C3.5523 4 4 3.5523 4 3C4 2.4477 3.5523 2 3 2C2.4477 2 2 2.4477 2 3C2 3.5523 2.4477 4 3 4ZM3 6C4.6568999 6 6 4.6568999 6 3C6 1.3431 4.6568999 0 3 0C1.3431 0 0 1.3431 0 3C0 4.6568999 1.3431 6 3 6Z" fill-rule="evenodd"/>
</svg>
