<?xml version="1.0" encoding="utf-8" ?>
<svg xmlns="http://www.w3.org/2000/svg" xmlns:xlink="http://www.w3.org/1999/xlink" width="24" height="24">
	<path fill="#11142D" transform="translate(14.1998 3)" d="M1.4022 2.2553699C2.2302999 2.6626999 2.8002 3.5148001 2.8002 4.5C2.8002 5.4851999 2.2302999 6.3372998 1.4022 6.7446299C1.0913 7.5893998 0.61000001 8.3518 0 8.9900999C0.099200003 8.9967003 0.19930001 9 0.30019999 9C2.7853999 9 4.8002 6.98528 4.8002 4.5C4.8002 2.01472 2.7853999 0 0.30019999 0C0.19930001 0 0.099200003 0.0033199999 0 0.00985C0.61000001 0.64818001 1.0913 1.41058 1.4022 2.2553699Z"/>
	<path fill="#11142D" transform="translate(5 3)" d="M4.5 7C5.8807001 7 7 5.8807101 7 4.5C7 3.1192901 5.8807001 2 4.5 2C3.1192901 2 2 3.1192901 2 4.5C2 5.8807101 3.1192901 7 4.5 7ZM4.5 9C6.9853001 9 9 6.98528 9 4.5C9 2.01472 6.9853001 0 4.5 0C2.01472 0 0 2.01472 0 4.5C0 6.98528 2.01472 9 4.5 9Z" fill-rule="evenodd"/>
	<path fill="#11142D" transform="translate(1 14)" d="M4 2L13 2C14.1046 2 15 2.8954 15 4L15 7L17 7L17 4C17 1.7909 15.2091 0 13 0L4 0C1.7908601 0 0 1.7909 0 4L0 7L2 7L2 4C2 2.8954 2.8954301 2 4 2Z"/>
	<path fill="#11142D" transform="translate(18.4937 14.024)" d="M2.5063 6.9759998L4.5063 6.9759998L4.5063 4.9759998C4.5063 2.3810999 2.5297 0.248 0 0C0.64829999 0.73229998 1.1204 1.6241 1.3499 2.6092C2.0537 3.1582 2.5063 4.0142002 2.5063 4.9759998L2.5063 6.9759998Z"/>
</svg>
